<svg width="32" height="32" viewBox="0 0 32 32" xmlns="http://www.w3.org/2000/svg">
  <!-- Background circle -->
  <circle cx="16" cy="16" r="15" fill="#ff7800" stroke="#fff" stroke-width="1"/>
  
  <!-- Longitude lines -->
  <path d="M16 1C12 1 8 16 8 16C8 16 12 31 16 31C20 31 24 16 24 16C24 16 20 1 16 1Z" 
        fill="none" stroke="#fff" stroke-width="1.5" opacity="0.8"/>
  
  <!-- Latitude lines -->
  <path d="M1 16C1 12 16 8 16 8C16 8 31 12 31 16C31 20 16 24 16 24C16 24 1 20 1 16Z" 
        fill="none" stroke="#fff" stroke-width="1.5" opacity="0.8"/>
  
  <!-- Grid lines -->
  <path d="M4 16H28M16 4V28" 
        stroke="#fff" stroke-width="1" opacity="0.6"/>
</svg> 